<mxfile host="app.diagrams.net" modified="2022-05-10T20:55:26.383Z" agent="5.0 (Windows NT 10.0; Win64; x64) AppleWebKit/537.36 (KHTML, like Gecko) Chrome/101.0.4951.54 Safari/537.36" etag="cbtB7qxOtXSD6vcURG_M" version="18.0.2" type="github">
  <diagram id="C5RBs43oDa-KdzZeNtuy" name="Page-1">
    <mxGraphModel dx="1673" dy="887" grid="1" gridSize="10" guides="1" tooltips="1" connect="1" arrows="1" fold="1" page="1" pageScale="1" pageWidth="827" pageHeight="1169" background="#000000" math="0" shadow="0">
      <root>
        <mxCell id="WIyWlLk6GJQsqaUBKTNV-0" />
        <mxCell id="WIyWlLk6GJQsqaUBKTNV-1" parent="WIyWlLk6GJQsqaUBKTNV-0" />
        <mxCell id="q96GQzXK0LWGDQ_hZyi3-2" value="" style="edgeStyle=orthogonalEdgeStyle;rounded=0;orthogonalLoop=1;jettySize=auto;html=1;strokeColor=#00FFFF;" edge="1" parent="WIyWlLk6GJQsqaUBKTNV-1" source="q96GQzXK0LWGDQ_hZyi3-0" target="q96GQzXK0LWGDQ_hZyi3-1">
          <mxGeometry relative="1" as="geometry" />
        </mxCell>
        <mxCell id="q96GQzXK0LWGDQ_hZyi3-0" value="&lt;font color=&quot;#00ff00&quot;&gt;Input:&lt;br&gt;1. pizza size&lt;br&gt;2. add pepperoni&lt;br&gt;3. add extra cheese&lt;/font&gt;" style="whiteSpace=wrap;html=1;rounded=1;fillColor=#0000CC;strokeColor=#00FF00;" vertex="1" parent="WIyWlLk6GJQsqaUBKTNV-1">
          <mxGeometry x="360" y="120" width="120" height="60" as="geometry" />
        </mxCell>
        <mxCell id="q96GQzXK0LWGDQ_hZyi3-4" value="" style="edgeStyle=orthogonalEdgeStyle;rounded=0;orthogonalLoop=1;jettySize=auto;html=1;fontColor=#00FF00;strokeColor=#00FFFF;" edge="1" parent="WIyWlLk6GJQsqaUBKTNV-1" source="q96GQzXK0LWGDQ_hZyi3-1" target="q96GQzXK0LWGDQ_hZyi3-3">
          <mxGeometry relative="1" as="geometry" />
        </mxCell>
        <mxCell id="q96GQzXK0LWGDQ_hZyi3-6" value="" style="edgeStyle=orthogonalEdgeStyle;rounded=0;orthogonalLoop=1;jettySize=auto;html=1;fontColor=#00FF00;strokeColor=#00FFFF;" edge="1" parent="WIyWlLk6GJQsqaUBKTNV-1" source="q96GQzXK0LWGDQ_hZyi3-1">
          <mxGeometry relative="1" as="geometry">
            <mxPoint x="420" y="480" as="targetPoint" />
          </mxGeometry>
        </mxCell>
        <mxCell id="q96GQzXK0LWGDQ_hZyi3-8" value="" style="edgeStyle=orthogonalEdgeStyle;rounded=0;orthogonalLoop=1;jettySize=auto;html=1;fontColor=#00FF00;strokeColor=#00FFFF;" edge="1" parent="WIyWlLk6GJQsqaUBKTNV-1" source="q96GQzXK0LWGDQ_hZyi3-1">
          <mxGeometry relative="1" as="geometry">
            <mxPoint x="660.0285714285715" y="480" as="targetPoint" />
          </mxGeometry>
        </mxCell>
        <mxCell id="q96GQzXK0LWGDQ_hZyi3-1" value="&lt;font color=&quot;#00ff00&quot;&gt;Do you want a S, M or L pizza?&lt;/font&gt;" style="rhombus;whiteSpace=wrap;html=1;rounded=1;fillColor=#0000CC;strokeColor=#00FF00;" vertex="1" parent="WIyWlLk6GJQsqaUBKTNV-1">
          <mxGeometry x="280" y="270" width="280" height="150" as="geometry" />
        </mxCell>
        <mxCell id="q96GQzXK0LWGDQ_hZyi3-16" value="" style="edgeStyle=orthogonalEdgeStyle;rounded=0;orthogonalLoop=1;jettySize=auto;html=1;fontColor=#00FF00;strokeColor=#00FFFF;" edge="1" parent="WIyWlLk6GJQsqaUBKTNV-1" source="q96GQzXK0LWGDQ_hZyi3-3" target="q96GQzXK0LWGDQ_hZyi3-15">
          <mxGeometry relative="1" as="geometry">
            <Array as="points">
              <mxPoint x="180" y="630" />
              <mxPoint x="420" y="630" />
            </Array>
          </mxGeometry>
        </mxCell>
        <mxCell id="q96GQzXK0LWGDQ_hZyi3-3" value="&lt;font color=&quot;#00ff00&quot;&gt;$15&lt;/font&gt;" style="whiteSpace=wrap;html=1;fillColor=#0000CC;strokeColor=#00FF00;rounded=1;" vertex="1" parent="WIyWlLk6GJQsqaUBKTNV-1">
          <mxGeometry x="120" y="480" width="120" height="60" as="geometry" />
        </mxCell>
        <mxCell id="q96GQzXK0LWGDQ_hZyi3-9" value="S" style="text;html=1;align=center;verticalAlign=middle;resizable=0;points=[];autosize=1;strokeColor=none;fillColor=none;fontColor=#00FF00;" vertex="1" parent="WIyWlLk6GJQsqaUBKTNV-1">
          <mxGeometry x="210" y="320" width="20" height="20" as="geometry" />
        </mxCell>
        <mxCell id="q96GQzXK0LWGDQ_hZyi3-10" value="M" style="text;html=1;align=center;verticalAlign=middle;resizable=0;points=[];autosize=1;strokeColor=none;fillColor=none;fontColor=#00FF00;" vertex="1" parent="WIyWlLk6GJQsqaUBKTNV-1">
          <mxGeometry x="425" y="440" width="30" height="20" as="geometry" />
        </mxCell>
        <mxCell id="q96GQzXK0LWGDQ_hZyi3-11" value="L" style="text;html=1;align=center;verticalAlign=middle;resizable=0;points=[];autosize=1;strokeColor=none;fillColor=none;fontColor=#00FF00;" vertex="1" parent="WIyWlLk6GJQsqaUBKTNV-1">
          <mxGeometry x="610" y="320" width="20" height="20" as="geometry" />
        </mxCell>
        <mxCell id="q96GQzXK0LWGDQ_hZyi3-17" value="" style="edgeStyle=orthogonalEdgeStyle;rounded=0;orthogonalLoop=1;jettySize=auto;html=1;fontColor=#00FF00;strokeColor=#00FFFF;" edge="1" parent="WIyWlLk6GJQsqaUBKTNV-1" source="q96GQzXK0LWGDQ_hZyi3-12" target="q96GQzXK0LWGDQ_hZyi3-15">
          <mxGeometry relative="1" as="geometry" />
        </mxCell>
        <mxCell id="q96GQzXK0LWGDQ_hZyi3-12" value="&lt;font color=&quot;#00ff00&quot;&gt;$20&lt;/font&gt;" style="whiteSpace=wrap;html=1;fillColor=#0000CC;strokeColor=#00FF00;rounded=1;" vertex="1" parent="WIyWlLk6GJQsqaUBKTNV-1">
          <mxGeometry x="360" y="480" width="120" height="60" as="geometry" />
        </mxCell>
        <mxCell id="q96GQzXK0LWGDQ_hZyi3-19" value="" style="edgeStyle=orthogonalEdgeStyle;rounded=0;orthogonalLoop=1;jettySize=auto;html=1;fontColor=#00FF00;strokeColor=#00FFFF;" edge="1" parent="WIyWlLk6GJQsqaUBKTNV-1" source="q96GQzXK0LWGDQ_hZyi3-13" target="q96GQzXK0LWGDQ_hZyi3-18">
          <mxGeometry relative="1" as="geometry">
            <Array as="points">
              <mxPoint x="660" y="630" />
              <mxPoint x="420" y="630" />
            </Array>
          </mxGeometry>
        </mxCell>
        <mxCell id="q96GQzXK0LWGDQ_hZyi3-13" value="&lt;font color=&quot;#00ff00&quot;&gt;$25&lt;/font&gt;" style="whiteSpace=wrap;html=1;fillColor=#0000CC;strokeColor=#00FF00;rounded=1;" vertex="1" parent="WIyWlLk6GJQsqaUBKTNV-1">
          <mxGeometry x="600" y="480" width="120" height="60" as="geometry" />
        </mxCell>
        <mxCell id="q96GQzXK0LWGDQ_hZyi3-35" value="" style="edgeStyle=orthogonalEdgeStyle;rounded=0;orthogonalLoop=1;jettySize=auto;html=1;fontColor=#00FF00;strokeColor=#00FFFF;entryX=0.5;entryY=0;entryDx=0;entryDy=0;" edge="1" parent="WIyWlLk6GJQsqaUBKTNV-1" source="q96GQzXK0LWGDQ_hZyi3-14" target="q96GQzXK0LWGDQ_hZyi3-33">
          <mxGeometry relative="1" as="geometry" />
        </mxCell>
        <mxCell id="q96GQzXK0LWGDQ_hZyi3-38" value="" style="edgeStyle=orthogonalEdgeStyle;rounded=0;orthogonalLoop=1;jettySize=auto;html=1;fontColor=#00FF00;strokeColor=#00FFFF;" edge="1" parent="WIyWlLk6GJQsqaUBKTNV-1" source="q96GQzXK0LWGDQ_hZyi3-14" target="q96GQzXK0LWGDQ_hZyi3-37">
          <mxGeometry relative="1" as="geometry" />
        </mxCell>
        <mxCell id="q96GQzXK0LWGDQ_hZyi3-14" value="&lt;font color=&quot;#00ff00&quot;&gt;Small, Medium or Large?&lt;/font&gt;" style="rhombus;whiteSpace=wrap;html=1;rounded=1;fillColor=#0000CC;strokeColor=#00FF00;" vertex="1" parent="WIyWlLk6GJQsqaUBKTNV-1">
          <mxGeometry x="280" y="900" width="280" height="150" as="geometry" />
        </mxCell>
        <mxCell id="q96GQzXK0LWGDQ_hZyi3-15" value="" style="shape=waypoint;sketch=0;size=6;pointerEvents=1;points=[];fillColor=#0000CC;resizable=0;rotatable=0;perimeter=centerPerimeter;snapToPoint=1;strokeColor=#00FF00;rounded=1;" vertex="1" parent="WIyWlLk6GJQsqaUBKTNV-1">
          <mxGeometry x="400" y="670" width="40" height="40" as="geometry" />
        </mxCell>
        <mxCell id="q96GQzXK0LWGDQ_hZyi3-18" value="" style="shape=waypoint;sketch=0;size=6;pointerEvents=1;points=[];fillColor=#0000CC;resizable=0;rotatable=0;perimeter=centerPerimeter;snapToPoint=1;strokeColor=#00FF00;rounded=1;" vertex="1" parent="WIyWlLk6GJQsqaUBKTNV-1">
          <mxGeometry x="394" y="680" width="40" height="40" as="geometry" />
        </mxCell>
        <mxCell id="q96GQzXK0LWGDQ_hZyi3-73" value="" style="edgeStyle=orthogonalEdgeStyle;rounded=0;orthogonalLoop=1;jettySize=auto;html=1;fontColor=#00FF00;strokeColor=#00FFFF;" edge="1" parent="WIyWlLk6GJQsqaUBKTNV-1" source="q96GQzXK0LWGDQ_hZyi3-32" target="q96GQzXK0LWGDQ_hZyi3-72">
          <mxGeometry relative="1" as="geometry">
            <Array as="points">
              <mxPoint x="420" y="1120" />
            </Array>
          </mxGeometry>
        </mxCell>
        <mxCell id="q96GQzXK0LWGDQ_hZyi3-32" value="&lt;font color=&quot;#00ff00&quot;&gt;$3&lt;/font&gt;" style="whiteSpace=wrap;html=1;fillColor=#0000CC;strokeColor=#00FF00;rounded=1;" vertex="1" parent="WIyWlLk6GJQsqaUBKTNV-1">
          <mxGeometry x="594" y="1090" width="120" height="60" as="geometry" />
        </mxCell>
        <mxCell id="q96GQzXK0LWGDQ_hZyi3-71" value="" style="edgeStyle=orthogonalEdgeStyle;rounded=0;orthogonalLoop=1;jettySize=auto;html=1;fontColor=#00FF00;strokeColor=#00FFFF;" edge="1" parent="WIyWlLk6GJQsqaUBKTNV-1" source="q96GQzXK0LWGDQ_hZyi3-33" target="q96GQzXK0LWGDQ_hZyi3-70">
          <mxGeometry relative="1" as="geometry">
            <Array as="points">
              <mxPoint x="420" y="1120" />
              <mxPoint x="420" y="1340" />
            </Array>
          </mxGeometry>
        </mxCell>
        <mxCell id="q96GQzXK0LWGDQ_hZyi3-33" value="&lt;font color=&quot;#00ff00&quot;&gt;$2&lt;/font&gt;" style="whiteSpace=wrap;html=1;fillColor=#0000CC;strokeColor=#00FF00;rounded=1;" vertex="1" parent="WIyWlLk6GJQsqaUBKTNV-1">
          <mxGeometry x="130" y="1090" width="120" height="60" as="geometry" />
        </mxCell>
        <mxCell id="q96GQzXK0LWGDQ_hZyi3-34" value="" style="shape=waypoint;sketch=0;size=6;pointerEvents=1;points=[];fillColor=#0000CC;resizable=0;rotatable=0;perimeter=centerPerimeter;snapToPoint=1;strokeColor=#00FF00;rounded=1;" vertex="1" parent="WIyWlLk6GJQsqaUBKTNV-1">
          <mxGeometry x="154" y="1070" width="40" height="40" as="geometry" />
        </mxCell>
        <mxCell id="q96GQzXK0LWGDQ_hZyi3-37" value="" style="shape=waypoint;sketch=0;size=6;pointerEvents=1;points=[];fillColor=#0000CC;resizable=0;rotatable=0;perimeter=centerPerimeter;snapToPoint=1;strokeColor=#00FF00;rounded=1;" vertex="1" parent="WIyWlLk6GJQsqaUBKTNV-1">
          <mxGeometry x="634" y="1070" width="40" height="40" as="geometry" />
        </mxCell>
        <mxCell id="q96GQzXK0LWGDQ_hZyi3-40" value="S" style="text;html=1;align=center;verticalAlign=middle;resizable=0;points=[];autosize=1;strokeColor=none;fillColor=none;fontColor=#00FF00;" vertex="1" parent="WIyWlLk6GJQsqaUBKTNV-1">
          <mxGeometry x="235" y="950" width="20" height="20" as="geometry" />
        </mxCell>
        <mxCell id="q96GQzXK0LWGDQ_hZyi3-41" value="M or L" style="text;html=1;align=center;verticalAlign=middle;resizable=0;points=[];autosize=1;strokeColor=none;fillColor=none;fontColor=#00FF00;" vertex="1" parent="WIyWlLk6GJQsqaUBKTNV-1">
          <mxGeometry x="590" y="950" width="50" height="20" as="geometry" />
        </mxCell>
        <mxCell id="q96GQzXK0LWGDQ_hZyi3-49" value="" style="edgeStyle=orthogonalEdgeStyle;rounded=0;orthogonalLoop=1;jettySize=auto;html=1;fontColor=#00FF00;strokeColor=#00FFFF;exitX=0.5;exitY=1;exitDx=0;exitDy=0;entryX=0.5;entryY=0;entryDx=0;entryDy=0;" edge="1" parent="WIyWlLk6GJQsqaUBKTNV-1" source="q96GQzXK0LWGDQ_hZyi3-42" target="q96GQzXK0LWGDQ_hZyi3-47">
          <mxGeometry relative="1" as="geometry">
            <mxPoint x="410" y="1550" as="targetPoint" />
            <Array as="points" />
          </mxGeometry>
        </mxCell>
        <mxCell id="q96GQzXK0LWGDQ_hZyi3-54" value="" style="edgeStyle=orthogonalEdgeStyle;rounded=0;orthogonalLoop=1;jettySize=auto;html=1;fontColor=#00FF00;strokeColor=#00FFFF;" edge="1" parent="WIyWlLk6GJQsqaUBKTNV-1" source="q96GQzXK0LWGDQ_hZyi3-42" target="q96GQzXK0LWGDQ_hZyi3-55">
          <mxGeometry relative="1" as="geometry">
            <mxPoint x="420.00000000000006" y="1690" as="targetPoint" />
            <Array as="points">
              <mxPoint x="180" y="1435" />
              <mxPoint x="180" y="1670" />
              <mxPoint x="420" y="1670" />
            </Array>
          </mxGeometry>
        </mxCell>
        <mxCell id="q96GQzXK0LWGDQ_hZyi3-42" value="&lt;font color=&quot;#00ff00&quot;&gt;Extra cheese?&lt;/font&gt;" style="rhombus;whiteSpace=wrap;html=1;rounded=1;fillColor=#0000CC;strokeColor=#00FF00;" vertex="1" parent="WIyWlLk6GJQsqaUBKTNV-1">
          <mxGeometry x="280" y="1360" width="280" height="150" as="geometry" />
        </mxCell>
        <mxCell id="q96GQzXK0LWGDQ_hZyi3-56" value="" style="edgeStyle=orthogonalEdgeStyle;rounded=0;orthogonalLoop=1;jettySize=auto;html=1;fontColor=#00FF00;strokeColor=#00FFFF;" edge="1" parent="WIyWlLk6GJQsqaUBKTNV-1" source="q96GQzXK0LWGDQ_hZyi3-47" target="q96GQzXK0LWGDQ_hZyi3-55">
          <mxGeometry relative="1" as="geometry">
            <Array as="points">
              <mxPoint x="420" y="1640" />
              <mxPoint x="420" y="1640" />
            </Array>
          </mxGeometry>
        </mxCell>
        <mxCell id="q96GQzXK0LWGDQ_hZyi3-47" value="&lt;font color=&quot;#00ff00&quot;&gt;$1&lt;/font&gt;" style="whiteSpace=wrap;html=1;fillColor=#0000CC;strokeColor=#00FF00;rounded=1;" vertex="1" parent="WIyWlLk6GJQsqaUBKTNV-1">
          <mxGeometry x="360" y="1560" width="120" height="60" as="geometry" />
        </mxCell>
        <mxCell id="q96GQzXK0LWGDQ_hZyi3-48" value="" style="shape=waypoint;sketch=0;size=6;pointerEvents=1;points=[];fillColor=#0000CC;resizable=0;rotatable=0;perimeter=centerPerimeter;snapToPoint=1;strokeColor=#00FF00;rounded=1;" vertex="1" parent="WIyWlLk6GJQsqaUBKTNV-1">
          <mxGeometry x="400" y="1540" width="40" height="40" as="geometry" />
        </mxCell>
        <mxCell id="q96GQzXK0LWGDQ_hZyi3-50" value="Yes" style="text;html=1;align=center;verticalAlign=middle;resizable=0;points=[];autosize=1;strokeColor=none;fillColor=none;fontColor=#00FF00;" vertex="1" parent="WIyWlLk6GJQsqaUBKTNV-1">
          <mxGeometry x="420" y="1520" width="40" height="20" as="geometry" />
        </mxCell>
        <mxCell id="q96GQzXK0LWGDQ_hZyi3-51" value="No" style="text;html=1;align=center;verticalAlign=middle;resizable=0;points=[];autosize=1;strokeColor=none;fillColor=none;fontColor=#00FF00;" vertex="1" parent="WIyWlLk6GJQsqaUBKTNV-1">
          <mxGeometry x="210.00000000000003" y="1410" width="30" height="20" as="geometry" />
        </mxCell>
        <mxCell id="q96GQzXK0LWGDQ_hZyi3-53" value="&lt;font color=&quot;#00ff00&quot;&gt;Total Bill&lt;/font&gt;" style="whiteSpace=wrap;html=1;fillColor=#0000CC;strokeColor=#00FF00;rounded=1;" vertex="1" parent="WIyWlLk6GJQsqaUBKTNV-1">
          <mxGeometry x="360.00000000000006" y="1750" width="120" height="60" as="geometry" />
        </mxCell>
        <mxCell id="q96GQzXK0LWGDQ_hZyi3-55" value="" style="shape=waypoint;sketch=0;size=6;pointerEvents=1;points=[];fillColor=#0000CC;resizable=0;rotatable=0;perimeter=centerPerimeter;snapToPoint=1;strokeColor=#00FF00;rounded=1;" vertex="1" parent="WIyWlLk6GJQsqaUBKTNV-1">
          <mxGeometry x="400.00000000000006" y="1730" width="40" height="40" as="geometry" />
        </mxCell>
        <mxCell id="q96GQzXK0LWGDQ_hZyi3-62" value="" style="edgeStyle=orthogonalEdgeStyle;rounded=0;orthogonalLoop=1;jettySize=auto;html=1;fontColor=#00FF00;strokeColor=#00FFFF;" edge="1" parent="WIyWlLk6GJQsqaUBKTNV-1" source="q96GQzXK0LWGDQ_hZyi3-60" target="q96GQzXK0LWGDQ_hZyi3-61">
          <mxGeometry relative="1" as="geometry">
            <Array as="points">
              <mxPoint x="60" y="765" />
              <mxPoint x="60" y="1280" />
              <mxPoint x="420" y="1280" />
              <mxPoint x="420" y="1340" />
            </Array>
          </mxGeometry>
        </mxCell>
        <mxCell id="q96GQzXK0LWGDQ_hZyi3-65" value="" style="edgeStyle=orthogonalEdgeStyle;rounded=0;orthogonalLoop=1;jettySize=auto;html=1;fontColor=#00FF00;strokeColor=#00FFFF;exitX=0.5;exitY=1;exitDx=0;exitDy=0;" edge="1" parent="WIyWlLk6GJQsqaUBKTNV-1" source="q96GQzXK0LWGDQ_hZyi3-60" target="q96GQzXK0LWGDQ_hZyi3-64">
          <mxGeometry relative="1" as="geometry">
            <Array as="points" />
          </mxGeometry>
        </mxCell>
        <mxCell id="q96GQzXK0LWGDQ_hZyi3-60" value="&lt;font color=&quot;#00ff00&quot;&gt;add pepperoni?&lt;/font&gt;" style="rhombus;whiteSpace=wrap;html=1;rounded=1;fillColor=#0000CC;strokeColor=#00FF00;" vertex="1" parent="WIyWlLk6GJQsqaUBKTNV-1">
          <mxGeometry x="280" y="690" width="280" height="150" as="geometry" />
        </mxCell>
        <mxCell id="q96GQzXK0LWGDQ_hZyi3-61" value="" style="shape=waypoint;sketch=0;size=6;pointerEvents=1;points=[];fillColor=#0000CC;resizable=0;rotatable=0;perimeter=centerPerimeter;snapToPoint=1;strokeColor=#00FF00;rounded=1;" vertex="1" parent="WIyWlLk6GJQsqaUBKTNV-1">
          <mxGeometry x="400" y="1340" width="40" height="40" as="geometry" />
        </mxCell>
        <mxCell id="q96GQzXK0LWGDQ_hZyi3-63" value="No" style="text;html=1;align=center;verticalAlign=middle;resizable=0;points=[];autosize=1;strokeColor=none;fillColor=none;fontColor=#00FF00;" vertex="1" parent="WIyWlLk6GJQsqaUBKTNV-1">
          <mxGeometry x="230" y="740" width="30" height="20" as="geometry" />
        </mxCell>
        <mxCell id="q96GQzXK0LWGDQ_hZyi3-64" value="" style="shape=waypoint;sketch=0;size=6;pointerEvents=1;points=[];fillColor=#0000CC;resizable=0;rotatable=0;perimeter=centerPerimeter;snapToPoint=1;strokeColor=#00FF00;rounded=1;" vertex="1" parent="WIyWlLk6GJQsqaUBKTNV-1">
          <mxGeometry x="400" y="880" width="40" height="40" as="geometry" />
        </mxCell>
        <mxCell id="q96GQzXK0LWGDQ_hZyi3-66" value="Yes" style="text;html=1;align=center;verticalAlign=middle;resizable=0;points=[];autosize=1;strokeColor=none;fillColor=none;fontColor=#00FF00;" vertex="1" parent="WIyWlLk6GJQsqaUBKTNV-1">
          <mxGeometry x="420" y="860" width="40" height="20" as="geometry" />
        </mxCell>
        <mxCell id="q96GQzXK0LWGDQ_hZyi3-70" value="" style="shape=waypoint;sketch=0;size=6;pointerEvents=1;points=[];fillColor=#0000CC;resizable=0;rotatable=0;perimeter=centerPerimeter;snapToPoint=1;strokeColor=#00FF00;rounded=1;" vertex="1" parent="WIyWlLk6GJQsqaUBKTNV-1">
          <mxGeometry x="400.00000000000006" y="1340" width="40" height="40" as="geometry" />
        </mxCell>
        <mxCell id="q96GQzXK0LWGDQ_hZyi3-72" value="" style="shape=waypoint;sketch=0;size=6;pointerEvents=1;points=[];fillColor=#0000CC;resizable=0;rotatable=0;perimeter=centerPerimeter;snapToPoint=1;strokeColor=#00FF00;rounded=1;" vertex="1" parent="WIyWlLk6GJQsqaUBKTNV-1">
          <mxGeometry x="400" y="1340" width="40" height="40" as="geometry" />
        </mxCell>
      </root>
    </mxGraphModel>
  </diagram>
</mxfile>
